<svg xmlns="http://www.w3.org/2000/svg" viewBox="0 0 1440 320"><path fill="#efa20b" fill-opacity="1" d="M0,192L24,181.3C48,171,96,149,144,133.3C192,117,240,107,288,122.7C336,139,384,181,432,181.3C480,181,528,139,576,117.3C624,96,672,96,720,106.7C768,117,816,139,864,170.7C912,203,960,245,1008,250.7C1056,256,1104,224,1152,186.7C1200,149,1248,107,1296,117.3C1344,128,1392,192,1416,224L1440,256L1440,320L1416,320C1392,320,1344,320,1296,320C1248,320,1200,320,1152,320C1104,320,1056,320,1008,320C960,320,912,320,864,320C816,320,768,320,720,320C672,320,624,320,576,320C528,320,480,320,432,320C384,320,336,320,288,320C240,320,192,320,144,320C96,320,48,320,24,320L0,320Z"></path></svg>